<?xml version="1.0" encoding="UTF-8" standalone="no"?>
<!DOCTYPE svg PUBLIC "-//W3C//DTD SVG 1.1//EN" "http://www.w3.org/Graphics/SVG/1.1/DTD/svg11.dtd">
<svg width="100%" height="100%" viewBox="0 0 3056 3976" version="1.1" xmlns="http://www.w3.org/2000/svg" xmlns:xlink="http://www.w3.org/1999/xlink" xml:space="preserve" xmlns:serif="http://www.serif.com/" style="fill-rule:evenodd;clip-rule:evenodd;stroke-linecap:round;stroke-linejoin:round;stroke-miterlimit:1.5;">
    <g transform="matrix(1,0,0,1,-3407.92,-4756.65)">
        <path d="M4876.05,6926.53C4876.05,6926.53 5254.56,6278 5698.75,6100.32C6171.47,5911.23 6301.63,6227.89 6406.66,6443.47C6502.54,6640.29 6384.18,6565.31 6311.5,6500.53C6238.82,6435.75 5981.67,6358.35 5881.1,6499.92C5881.1,6499.92 5894.38,7976.86 6021.65,8172.87C6148.92,8368.88 6321.88,8564.91 6321.88,8564.91C6321.88,8564.91 6442.96,8764.52 6238.51,8697.51C6034.06,8630.5 5907.71,8538.74 5836.66,8499.65C5765.6,8460.56 5704.28,8240.2 5683.37,8130.26C5662.46,8020.32 5563.73,7278.03 5567.95,6956.69C5572.17,6635.36 5423.74,6753.93 5288.44,6834.98C5153.14,6916.02 4979.85,6972.85 4876.05,6926.53Z" style="fill:rgb(157,120,108);stroke:rgb(157,120,108);stroke-width:41.67px;"/>
        <path d="M3448.24,8459.18L3773.46,7913.53C3773.46,7913.53 3850.19,7823.14 3869.7,7607.68C3889.21,7392.23 3999.4,6080.75 3999.4,6080.75C3999.4,6080.75 4032.66,5842.95 4161.35,5680.35C4290.04,5517.75 4644.87,4929.8 4644.87,4929.8C4644.87,4929.8 4934.62,4550.32 5292.7,4989.33C5650.77,5428.34 5645.29,5484.69 5645.29,5484.69C5645.29,5484.69 5856.52,5733.08 5605.55,5939.15C5355.74,6144.26 5022.84,6488.39 4945.59,6593.72L4652.44,7030.33C4652.44,7030.33 4579.12,7114.11 4561.52,6981.7C4543.93,6849.3 4594.89,6579.24 4697.91,6480.79C4800.94,6382.33 5132.14,6039.15 5132.14,6039.15C5132.14,6039.15 5433.08,5796.48 5331.98,5591.17C5230.88,5385.87 5187.5,5307.87 4984.05,5284.52C4781.9,5261.32 4676.11,5415.95 4654.35,5447.76C4567.03,5575.39 4585.72,5537.24 4546.4,5906.58C4507.08,6275.93 4399.87,7803.86 4399.87,7803.86C4399.87,7803.86 4414.93,8094.94 4191.52,8236.93C3968.1,8378.92 3597.97,8599.57 3597.97,8599.57C3597.97,8599.57 3363.96,8711.78 3448.24,8459.18ZM4381.39,5914.25C4381.39,5914.25 4238.08,5828.96 4213.35,6224.31C4185.07,6676.32 4088.11,8000.5 4089.58,7993.28C4089.58,7993.28 4252.54,7943.91 4284.1,7774.73C4315.65,7605.55 4381.39,5914.25 4381.39,5914.25Z" style="fill:rgb(157,120,108);stroke:rgb(157,120,108);stroke-width:41.67px;"/>
        <g transform="matrix(0.995405,0.0957566,-0.0957566,0.995405,515.326,-469.017)">
            <path d="M3495,5903.81C3495,5903.81 3496.28,5471.65 3937.66,5284.98C4193.67,5176.71 4305.96,5110.63 4339.5,5050.2C4361.14,5011.21 4391.08,4964.14 4427.05,4957.81C4427.05,4957.81 4484.73,4934.21 4444.95,5016.98C4415.64,5077.95 4385.24,5123.14 4268.38,5356.2C4098.29,5695.41 3826.53,5788.46 3714.88,5856.41C3612.85,5918.51 3507.18,6087.93 3495,5903.81Z" style="fill:rgb(157,120,108);stroke:rgb(157,120,108);stroke-width:41.67px;"/>
        </g>
    </g>
</svg>
